<svg width="954.9999999999999" height="960" xmlns="http://www.w3.org/2000/svg" preserveAspectRatio="xMidYMid meet">
 <g>
  <title>background</title>
  <rect x="-1" y="-1" width="957" height="962" id="canvas_background" fill="none"/>
 </g>

 <g>
  <title>Layer 1</title>
  <ellipse fill="#fff" stroke-width="0" stroke-opacity="null" cx="476.916621" cy="479.999991" id="svg_3" rx="474.44912" ry="474.44912" stroke="#000"/>
  <g fill="#4caf50" id="svg_1" transform="translate(0,972) scale(0.10000000149011612,-0.10000000149011612) ">
   <path d="m4821.776323,7792.88769c-37.26216,-17.68373 -149.04865,-128.83865 -193.88955,-193.25798c-15.78905,-22.73624 -51.15653,-80.83995 -77.68214,-129.47023c-85.89244,-154.7327 -138.94365,-220.41515 -227.36234,-284.20292c-50.52496,-35.99904 -255.78263,-167.36394 -255.78263,-163.57457c0,1.89468 4.42094,11.36811 9.47343,21.47311c8.84187,17.05217 8.84187,18.94686 -3.78937,25.26248c-15.15749,8.84187 -12.63124,10.73655 -32.84123,-28.42029c-16.42061,-31.57811 -16.42061,-31.57811 -17.05217,-10.73656c0,23.99936 -1.26312,24.63092 -27.15717,5.68406c-34.10435,-25.26248 -118.73366,-68.84026 -127.57553,-65.68245c-4.42094,1.89468 -10.73656,0.63156 -13.89437,-2.52625c-4.42093,-4.42094 -9.47343,3.78937 -14.52593,23.36779c-13.2628,46.10403 -44.20934,73.89276 -101.04992,90.94494c-25.89405,8.21031 -61.26152,15.15749 -78.94526,16.42061c-47.99872,2.52625 -62.52464,10.73656 -97.89212,57.47215c-35.36747,46.73559 -66.31402,70.73495 -112.41805,87.78713c-16.42061,5.68405 -54.94589,20.84154 -86.524,33.47279c-71.36651,28.42029 -115.57585,29.68341 -189.46861,5.68405c-53.05122,-17.68373 -87.15557,-25.26248 -83.99776,-18.3153c15.78906,29.05186 18.94687,39.15685 15.78906,47.36716c-10.73656,27.15717 -70.73495,44.20934 -184.41612,51.15652c-80.83995,5.0525 -98.52369,11.36812 -179.36363,65.68246c-98.52368,66.31401 -130.73334,75.15588 -289.88698,82.10306c-116.83898,4.42094 -117.47054,5.0525 -231.78328,70.10339c-90.31337,51.15653 -171.78487,58.10371 -250.09857,20.84155c-130.10178,-61.26152 -366.93755,-319.5704 -514.09151,-560.19554c-130.73335,-213.46798 -226.73078,-414.30471 -289.25542,-607.5627c-15.78905,-48.63028 -47.36716,-137.68053 -69.47183,-198.31048c-55.57746,-151.5749 -130.10178,-380.20036 -164.8377,-505.24965c-15.78905,-57.47215 -32.84122,-116.83898 -38.52528,-132.62803c-29.68342,-83.99775 -59.36683,-215.99422 -72.62964,-325.25446c-3.78937,-32.20966 -7.57874,-191.3633 -8.2103,-366.30599c-1.26313,-271.57168 0,-317.67571 10.10499,-377.67411c21.47311,-130.73334 56.84058,-222.9414 107.36555,-282.9398c11.36812,-13.2628 27.15717,-40.41997 35.36747,-60.62996c8.84187,-20.20998 48.63028,-104.8393 89.05025,-188.20549c95.36587,-195.78424 185.04769,-338.51726 273.46637,-434.51469c58.10371,-63.78777 78.3137,-97.26056 176.20582,-293.67636c49.26184,-98.52368 105.47086,-203.36298 125.04928,-233.67796c77.05057,-116.83898 156.62739,-164.83769 231.15172,-140.83834c10.10499,3.78938 53.68277,9.47344 96.62899,13.26281c42.94622,3.78937 90.94494,9.47343 107.36555,13.89436c68.2087,16.42062 184.41612,82.73463 234.30952,134.52272l21.47311,22.10467l59.9984,0c95.99743,0 173.67956,24.63092 257.67731,80.20838c107.36555,70.73495 214.7311,212.20485 270.30856,354.30632c10.105,25.26248 20.20999,43.57778 22.73624,41.05153c2.52624,-2.52625 17.05217,-22.73623 32.20966,-44.20934c15.15749,-20.84155 55.57746,-69.47183 89.68181,-107.36555c34.73592,-37.26216 74.52433,-86.524 89.05025,-109.26024c15.15749,-22.73623 37.26216,-51.15652 49.89341,-63.1562c13.2628,-11.99968 29.05185,-30.94654 35.99903,-42.31466c36.6306,-58.73527 167.99551,-107.99711 353.04319,-131.99647c87.78713,-11.36812 137.68053,-23.99936 176.83738,-43.57778c15.78905,-8.21031 76.41901,-49.8934 133.89115,-92.83962c132.62803,-97.89212 234.30952,-159.15364 327.14915,-196.4158c99.15524,-39.78841 164.83769,-54.9459 255.78263,-59.36684c85.89244,-3.78937 77.05057,-0.63156 246.3092,-93.47118c159.7852,-87.15556 213.46797,-108.62867 356.83256,-142.73302c115.57586,-27.15717 213.46797,-32.20967 275.99262,-12.63124c23.99936,6.94718 54.31434,20.20998 67.57714,29.05185c12.63124,8.84187 26.5256,15.78905 30.31498,15.78905c3.78937,0 20.20998,-8.21031 35.99903,-18.94686c47.99872,-30.31498 194.52112,-97.89212 278.51887,-128.2071c111.15492,-39.78841 188.83705,-55.57746 277.8873,-56.20902c111.78649,0 169.25864,12.63124 344.83289,77.68213c56.20902,20.20999 106.73398,37.26216 112.41804,37.26216c8.84187,0 10.105,-16.42061 10.105,-171.78488c0,-94.7343 3.15781,-190.73174 6.31562,-213.46797c9.47343,-57.47215 33.47279,-104.8393 59.99839,-116.83898l20.84155,-10.10499l145.89083,73.2612c231.15172,115.57585 326.51759,177.46893 427.56752,277.8873c73.89276,72.62964 109.26023,124.41772 161.67988,236.20421c64.41933,137.04896 70.10339,145.89083 158.52208,238.73045c78.31369,82.73463 84.62931,106.10243 92.83962,344.83289c5.68406,165.46925 6.31562,168.62707 41.6831,253.25638c2.52624,6.94718 24.63092,42.31466 49.8934,78.94526c41.05153,61.26152 46.73559,74.52432 71.36651,158.52207c14.52593,50.52497 37.89372,138.31209 51.78809,195.78424c20.20998,84.62932 30.94654,116.83898 59.36683,173.67957c39.78841,78.94525 100.41837,162.31144 185.04768,254.5195c129.47022,140.83834 225.46766,297.46573 317.67572,519.77557c18.3153,42.94622 48.63027,112.41805 67.57714,154.10115c69.47182,151.57489 126.31241,303.78134 159.15363,426.93594c6.31563,25.89405 22.10468,81.47151 34.73592,124.41773c32.84122,113.68117 53.05121,226.09922 77.68213,440.19875c15.78905,137.68053 15.78905,536.19619 0,644.1933c-12.63124,85.89244 -37.26216,217.25734 -54.31434,287.36073c-6.31562,25.89405 -16.42061,73.2612 -22.73623,104.20774c-5.68406,31.5781 -11.99968,61.26152 -13.89437,66.31402c-1.89468,5.05249 -14.52592,-53.05122 -28.42029,-129.47022c-58.10371,-329.04383 -145.89083,-608.82582 -267.78231,-849.45097c-88.41869,-175.57425 -357.46412,-574.72147 -507.77589,-754.71665c-25.89404,-30.94654 -59.9984,-76.41901 -75.15589,-101.04993c-56.20902,-88.41869 -125.04928,-173.048 -227.9939,-277.88731c-58.10371,-58.73527 -139.57521,-145.89083 -181.25831,-192.62642c-41.68309,-46.73559 -99.15524,-107.36555 -127.57553,-134.52272l-51.78809,-49.26184l-21.47311,18.94686c-21.47311,18.94686 -47.36715,27.78873 -175.57425,63.78777c-75.15589,20.84155 -118.10211,39.78841 -118.10211,52.41965c0,4.42093 -6.94718,10.73656 -15.15748,14.52593c-34.10436,12.63124 -89.05025,98.52368 -130.10179,201.46829c-82.73463,209.04704 -164.20613,275.99262 -324.62289,266.51919c-33.47279,-1.89469 -75.78745,-8.84187 -101.68149,-17.05218c-41.05154,-13.2628 -48.63028,-13.89436 -104.20774,-7.57874c-72.62964,8.21031 -112.41805,27.78873 -293.67636,142.10146c-65.68245,41.6831 -152.83802,92.83962 -192.62643,114.31273c-57.47214,30.31498 -84.62931,49.89341 -130.10178,93.47119c-61.26152,58.10371 -110.52336,93.47118 -130.73334,93.47118c-22.73624,0 -63.15621,28.42029 -83.99776,59.9984c-11.99968,17.68373 -29.68341,42.94622 -39.78841,56.84058c-10.10499,13.89437 -27.15716,54.31434 -37.89372,89.05025c-20.20998,65.05089 -45.47247,112.41805 -89.05025,169.89019c-12.63124,17.68374 -39.78841,58.10371 -59.99839,90.31338c-23.3678,39.15685 -65.0509,89.68181 -122.52304,151.57489c-101.04993,108.62867 -112.41805,128.83866 -98.52368,176.20581c11.99968,41.05154 47.99871,97.89212 101.04993,161.04833c63.78776,75.78745 90.31337,118.1021 150.94333,237.46733c60.62995,120.62835 95.99743,205.88923 123.78616,299.36042c21.47311,72.62963 47.36715,214.09953 53.68277,295.57104c1.89469,29.68341 5.0525,63.78777 6.31563,75.78744c1.89468,15.15749 -1.26313,29.68342 -9.47344,42.94622c-14.52592,23.3678 -37.26216,26.52561 -82.10306,10.73656c-58.73527,-20.84155 -104.8393,-56.84059 -226.09922,-176.20581c-121.25991,-119.36523 -121.89148,-119.99679 -106.73399,-85.89244c106.73399,236.83577 121.25992,274.09793 140.20678,365.04287c13.89437,66.31401 12.63124,167.36394 -2.52625,215.36266c-15.78905,51.15652 -37.26216,77.68213 -77.68213,97.89211c-41.6831,20.84155 -79.57682,21.47311 -121.89148,1.26313l0,-0.00001zm44.20934,-6.31562c-13.89436,-4.42093 -37.89372,-14.52592 -53.68277,-22.10467c-18.94686,-8.84187 -23.99936,-10.10499 -15.78905,-3.15781c19.57842,15.78905 61.26151,34.10435 78.94525,33.47279c11.99968,0 10.105,-1.89469 -9.47343,-8.21031zm-1225.23038,-704.82325c-1.89469,-3.15781 -9.47344,-9.47343 -15.78905,-12.63124c-10.105,-5.0525 -11.36812,-5.0525 -8.84187,2.52625c1.89468,5.05249 8.2103,10.73655 13.89436,11.99968c6.31562,1.89468 11.36812,3.15781 12.63124,3.78937c1.26313,0 0,-1.89469 -1.89468,-5.68406zm1404.59401,-1109.65453l20.84154,-30.31498l-22.73623,25.26248c-19.57842,22.10468 -27.15717,34.73592 -20.84155,34.73592c1.26313,0 11.36812,-13.26281 22.73624,-29.68342zm-4201.15079,-659.98235c-1.89469,-4.42093 -3.15781,-1.26312 -3.15781,7.57875c0,8.84187 1.26312,11.99968 3.15781,8.21031c1.26312,-4.42094 1.26312,-11.99968 0,-15.78906zm7010.33881,-119.99679c-61.26152,-77.68213 -115.57586,-140.83833 -100.41837,-118.73366c18.3153,29.05185 109.8918,147.78552 133.89115,174.94269c51.15653,58.10371 34.10436,29.05185 -33.47278,-56.20903zm-2098.04915,10.73656c6.94718,-5.68406 1.26312,-4.42094 -12.63124,3.78937c-13.89437,7.57875 -27.78873,16.42061 -31.5781,20.20999c-10.105,9.47343 30.31497,-12.63124 44.20934,-23.99936zm2678.45467,-316.41259c-45.47246,-120.62835 -65.05089,-166.73238 -69.47182,-166.73238c-1.89469,0 2.52625,15.15749 9.47343,33.47279c7.57874,17.68373 27.15717,68.2087 43.57778,111.78648c42.31466,109.8918 51.78809,133.25959 54.31434,130.73335c1.26312,-1.26313 -15.78905,-50.52497 -37.89373,-109.26024zm-7563.58716,-421.88345c10.73655,-44.20935 27.78873,-104.20774 38.52528,-133.2596c23.3678,-66.31401 22.73624,-71.36651 -1.26312,-30.31498c-42.94622,74.52433 -73.2612,200.20517 -78.3137,327.14915l-3.15781,69.47182l11.99968,-76.41901c6.94718,-41.68309 20.84155,-112.41804 32.20967,-156.62739l0,0.00001zm6671.18998,-1693.21787c-1.89469,-5.68406 -5.0525,-8.84187 -6.31562,-6.94719c-1.89469,1.89469 -1.26312,5.68406 1.26312,9.47343c5.68406,10.105 9.47343,8.21031 5.0525,-2.52624z" id="svg_2" stroke="null"/>
  </g>
 </g>
</svg>