<?xml version="1.0" standalone="no"?>
<!DOCTYPE svg PUBLIC "-//W3C//DTD SVG 20010904//EN"
 "http://www.w3.org/TR/2001/REC-SVG-20010904/DTD/svg10.dtd">
<svg version="1.0" xmlns="http://www.w3.org/2000/svg"
 width="1280.000000pt" height="972.000000pt" viewBox="0 0 1280.000000 972.000000"
 preserveAspectRatio="xMidYMid meet">
<g transform="translate(0.000000,972.000000) scale(0.100000,-0.100000)"
fill="#4caf50" stroke="none">
<path d="M6355 9396 c-59 -28 -236 -204 -307 -306 -25 -36 -81 -128 -123 -205
-136 -245 -220 -349 -360 -450 -80 -57 -405 -265 -405 -259 0 3 7 18 15 34 14
27 14 30 -6 40 -24 14 -20 17 -52 -45 -26 -50 -26 -50 -27 -17 0 38 -2 39 -43
9 -54 -40 -188 -109 -202 -104 -7 3 -17 1 -22 -4 -7 -7 -15 6 -23 37 -21 73
-70 117 -160 144 -41 13 -97 24 -125 26 -76 4 -99 17 -155 91 -56 74 -105 112
-178 139 -26 9 -87 33 -137 53 -113 45 -183 47 -300 9 -84 -28 -138 -40 -133
-29 25 46 30 62 25 75 -17 43 -112 70 -292 81 -128 8 -156 18 -284 104 -156
105 -207 119 -459 130 -185 7 -186 8 -367 111 -143 81 -272 92 -396 33 -206
-97 -581 -506 -814 -887 -207 -338 -359 -656 -458 -962 -25 -77 -75 -218 -110
-314 -88 -240 -206 -602 -261 -800 -25 -91 -52 -185 -61 -210 -47 -133 -94
-342 -115 -515 -6 -51 -12 -303 -13 -580 -2 -430 0 -503 16 -598 34 -207 90
-353 170 -448 18 -21 43 -64 56 -96 14 -32 77 -166 141 -298 151 -310 293
-536 433 -688 92 -101 124 -154 279 -465 78 -156 167 -322 198 -370 122 -185
248 -261 366 -223 16 6 85 15 153 21 68 6 144 15 170 22 108 26 292 131 371
213 l34 35 95 0 c152 0 275 39 408 127 170 112 340 336 428 561 16 40 32 69
36 65 4 -4 27 -36 51 -70 24 -33 88 -110 142 -170 55 -59 118 -137 141 -173
24 -36 59 -81 79 -100 21 -19 46 -49 57 -67 58 -93 266 -171 559 -209 139 -18
218 -38 280 -69 25 -13 121 -79 212 -147 210 -155 371 -252 518 -311 157 -63
261 -87 405 -94 136 -6 122 -1 390 -148 253 -138 338 -172 565 -226 183 -43
338 -51 437 -20 38 11 86 32 107 46 20 14 42 25 48 25 6 0 32 -13 57 -30 76
-48 308 -155 441 -203 176 -63 299 -88 440 -89 177 0 268 20 546 123 89 32
169 59 178 59 14 0 16 -26 16 -272 0 -150 5 -302 10 -338 15 -91 53 -166 95
-185 l33 -16 231 116 c366 183 517 281 677 440 117 115 173 197 256 374 102
217 111 231 251 378 124 131 134 168 147 546 9 262 10 267 66 401 4 11 39 67
79 125 65 97 74 118 113 251 23 80 60 219 82 310 32 134 49 185 94 275 63 125
159 257 293 403 205 223 357 471 503 823 29 68 77 178 107 244 110 240 200
481 252 676 10 41 35 129 55 197 52 180 84 358 123 697 25 218 25 849 0 1020
-20 136 -59 344 -86 455 -10 41 -26 116 -36 165 -9 50 -19 97 -22 105 -3 8
-23 -84 -45 -205 -92 -521 -231 -964 -424 -1345 -140 -278 -566 -910 -804
-1195 -41 -49 -95 -121 -119 -160 -89 -140 -198 -274 -361 -440 -92 -93 -221
-231 -287 -305 -66 -74 -157 -170 -202 -213 l-82 -78 -34 30 c-34 30 -75 44
-278 101 -119 33 -187 63 -187 83 0 7 -11 17 -24 23 -54 20 -141 156 -206 319
-131 331 -260 437 -514 422 -53 -3 -120 -14 -161 -27 -65 -21 -77 -22 -165
-12 -115 13 -178 44 -465 225 -104 66 -242 147 -305 181 -91 48 -134 79 -206
148 -97 92 -175 148 -207 148 -36 0 -100 45 -133 95 -19 28 -47 68 -63 90 -16
22 -43 86 -60 141 -32 103 -72 178 -141 269 -20 28 -63 92 -95 143 -37 62
-103 142 -194 240 -160 172 -178 204 -156 279 19 65 76 155 160 255 101 120
143 187 239 376 96 191 152 326 196 474 34 115 75 339 85 468 3 47 8 101 10
120 3 24 -2 47 -15 68 -23 37 -59 42 -130 17 -93 -33 -166 -90 -358 -279 -192
-189 -193 -190 -169 -136 169 375 192 434 222 578 22 105 20 265 -4 341 -25
81 -59 123 -123 155 -66 33 -126 34 -193 2z m70 -10 c-22 -7 -60 -23 -85 -35
-30 -14 -38 -16 -25 -5 31 25 97 54 125 53 19 0 16 -3 -15 -13z m-1940 -1116
c-3 -5 -15 -15 -25 -20 -16 -8 -18 -8 -14 4 3 8 13 17 22 19 10 3 18 5 20 6 2
0 0 -3 -3 -9z m2224 -1757 l33 -48 -36 40 c-31 35 -43 55 -33 55 2 0 18 -21
36 -47z m-6652 -1045 c-3 -7 -5 -2 -5 12 0 14 2 19 5 13 2 -7 2 -19 0 -25z
m11100 -190 c-97 -123 -183 -223 -159 -188 29 46 174 234 212 277 81 92 54 46
-53 -89z m-3322 17 c11 -9 2 -7 -20 6 -22 12 -44 26 -50 32 -16 15 48 -20 70
-38z m4241 -501 c-72 -191 -103 -264 -110 -264 -3 0 4 24 15 53 12 28 43 108
69 177 67 174 82 211 86 207 2 -2 -25 -80 -60 -173z m-11976 -668 c17 -70 44
-165 61 -211 37 -105 36 -113 -2 -48 -68 118 -116 317 -124 518 l-5 110 19
-121 c11 -66 33 -178 51 -248z m10563 -2681 c-3 -9 -8 -14 -10 -11 -3 3 -2 9
2 15 9 16 15 13 8 -4z"/>
</g>
</svg>
